<svg id="Capa_1" style="background:#023456;border:solid 10px #000;border-radius:300px" enable-background="new 0 0 512.061 512.061" height="512" viewBox="0 0 512.061 512.061" width="512" xmlns="http://www.w3.org/2000/svg"><g><path d="m509.838 427.075c-.242-.627 3.246 6.933-46.31-100.044h-414.967l-45.975 99.172c-4.032 8.708-3.597 21.035 3.069 30.781 6.017 8.795 15.971 14.047 26.628 14.047h131.362l26.086-83.474c1.957-6.262 7.757-10.526 14.317-10.526h104c6.561 0 12.36 4.264 14.317 10.526l26.086 83.474h131.318c22.64 0 38.303-22.788 30.069-43.956z"/><path d="m455.049 297.031v-226c0-16.542-13.458-30-30-30h-338c-16.542 0-30 13.458-30 30v226z"/><path d="m215.076 407.031-20 64h121.944l-20-64z"/></g></svg>